<svg viewBox="0 0 405.96 161.99" xmlns="http://www.w3.org/2000/svg"><g fill="#fff"><path d="m201 117.87v-71.42h31.59a20.33 20.33 0 0 1 9.1 2.06 23.65 23.65 0 0 1 7.2 5.44 25.54 25.54 0 0 1 4.72 7.64 23 23 0 0 1 1.71 8.6 23.71 23.71 0 0 1 -3.47 12.63 19.94 19.94 0 0 1 -9.4 8.2l16.29 26.85h-15.6l-14.59-23.94h-13.67v23.94zm13.89-36.11h17.4a7.29 7.29 0 0 0 3.57-.91 9.21 9.21 0 0 0 2.87-2.46 12.38 12.38 0 0 0 1.91-3.67 14.52 14.52 0 0 0 .7-4.53 12.87 12.87 0 0 0 -.81-4.63 11.94 11.94 0 0 0 -2.16-3.67 9.64 9.64 0 0 0 -3.12-2.41 8.08 8.08 0 0 0 -3.57-.86h-16.8z"/><path d="m263.56 81.66a37.14 37.14 0 0 1 2.36-12.93 35.22 35.22 0 0 1 6.9-11.41 34.69 34.69 0 0 1 11.06-8.15 34.16 34.16 0 0 1 14.89-3.12 32.51 32.51 0 0 1 17.05 4.32 27.7 27.7 0 0 1 10.71 11.27l-10.66 7.36a18.39 18.39 0 0 0 -3.42-5.08 17.21 17.21 0 0 0 -4.33-3.27 19.65 19.65 0 0 0 -4.82-1.76 23.49 23.49 0 0 0 -4.93-.55 18.86 18.86 0 0 0 -9.11 2.11 20 20 0 0 0 -6.43 5.49 24.06 24.06 0 0 0 -3.83 7.62 29 29 0 0 0 -1.31 8.5 28 28 0 0 0 1.51 9.11 24.22 24.22 0 0 0 4.28 7.69 21.27 21.27 0 0 0 6.64 5.33 18.15 18.15 0 0 0 8.5 2 22.53 22.53 0 0 0 5-.6 19.21 19.21 0 0 0 5-1.91 18.75 18.75 0 0 0 4.37-3.37 15.39 15.39 0 0 0 3.22-5l11.37 6.54a21.47 21.47 0 0 1 -4.88 7.09 31.21 31.21 0 0 1 -7.14 5.18 36.49 36.49 0 0 1 -8.5 3.22 37.11 37.11 0 0 1 -8.85 1.11 30.54 30.54 0 0 1 -14-3.22 36.56 36.56 0 0 1 -10.91-8.4 39.11 39.11 0 0 1 -7.14-11.77 36.73 36.73 0 0 1 -2.6-13.4z"/><path d="m350.78 72.1v45.77h-13.88v-71.42h10.76l37.22 46.88v-46.78h13.88v71.32h-11.27z"/></g><path d="m168.77 48.57a5 5 0 0 0 -2.54-2.81 4.86 4.86 0 0 0 -2.11-.48 5 5 0 0 0 -4.47 2.83 86 86 0 0 1 -4.36 8 71.62 71.62 0 0 0 -137.7 37.23 91.92 91.92 0 0 0 -9.91 16.3 5 5 0 0 0 4.47 7.07 5 5 0 0 0 4.47-2.83 83.62 83.62 0 0 1 4.35-8 71.61 71.61 0 0 0 137.7-37.19 91.92 91.92 0 0 0 9.91-16.3 4.91 4.91 0 0 0 .19-3.82zm-18.92 32.43a61.72 61.72 0 0 1 -121.63 14.85c11.36-13.34 27.08-22.85 46.99-28.33a137.72 137.72 0 0 1 30.79-4.71l-14.77 14.79 7 7 26.77-26.8-30.49-30.5-7 7 18.62 18.6a146.43 146.43 0 0 0 -33.27 5 112 112 0 0 0 -35.67 16.5 91 91 0 0 0 -10.73 8.94c0-.78-.05-1.57-.05-2.35a61.72 61.72 0 0 1 121.59-14.85c-11.31 13.34-27 22.86-46.95 28.33a137.72 137.72 0 0 1 -30.8 4.71l14.75-14.79-7-7-26.74 26.8 30.49 30.5 7-7-18.6-18.61a146.59 146.59 0 0 0 33.27-5 112 112 0 0 0 35.66-16.5 91.14 91.14 0 0 0 10.73-8.94c.02.78.04 1.57.04 2.36z" fill="#4155ff"/></svg>