<svg enable-background="new 0 0 1520.4 1321.6" viewBox="0 0 1520.4 1321.6" xmlns="http://www.w3.org/2000/svg"><path d="m616.1-.5v1322.2l256.4.1v-1322.3z" fill="#4155ff"/><path d="m616.1 627.7h30v692.4h-30z" fill="#4155ff"/><path d="m872.5 1321.5v-1321.5" fill="none" stroke="#fff" stroke-linejoin="round" stroke-miterlimit="10" stroke-width="3"/><path d="m616.1.3v1321.5" fill="none" stroke="#fff" stroke-linejoin="round" stroke-miterlimit="10" stroke-width="3"/><g fill="#7898ff"><path d="m635.7 217.9c-2.2 0-4-1.8-4-4v-52.1c0-2.2 1.8-4 4-4s4 1.8 4 4v52.1c0 2.2-1.8 4-4 4z"/><path d="m635.7 354.4c-2.2 0-4-1.8-4-4v-92.1c0-2.2 1.8-4 4-4s4 1.8 4 4v92.1c0 2.2-1.8 4-4 4z"/><path d="m658.6 381c-2.2 0-4-1.8-4-4v-62.1c0-2.2 1.8-4 4-4s4 1.8 4 4v62.1c0 2.2-1.8 4-4 4z"/><path d="m664.4 96.4c-2.2 0-4-1.8-4-4v-52.1c0-2.2 1.8-4 4-4s4 1.8 4 4v52.1c0 2.2-1.8 4-4 4z"/><path d="m658.6 650.1c-2.2 0-4-1.8-4-4v-52.1c0-2.2 1.8-4 4-4s4 1.8 4 4v52.1c0 2.2-1.8 4-4 4z"/><path d="m635.7 111.5c-2.2 0-4-1.8-4-4v-22.1c0-2.2 1.8-4 4-4s4 1.8 4 4v22.1c0 2.2-1.8 4-4 4z"/><path d="m664.4 241.4c-2.2 0-4-1.8-4-4v-22.1c0-2.2 1.8-4 4-4s4 1.8 4 4v22.1c0 2.2-1.8 4-4 4z"/><path d="m632.6 441.3c-2.2 0-4-1.8-4-4v-15.1c0-2.2 1.8-4 4-4s4 1.8 4 4v15.1c0 2.2-1.8 4-4 4z"/><path d="m822 217.9c-2.2 0-4-1.8-4-4v-52.1c0-2.2 1.8-4 4-4s4 1.8 4 4v52.1c0 2.2-1.8 4-4 4z"/><path d="m822 354.4c-2.2 0-4-1.8-4-4v-92.1c0-2.2 1.8-4 4-4s4 1.8 4 4v92.1c0 2.2-1.8 4-4 4z"/><path d="m844.9 381c-2.2 0-4-1.8-4-4v-62.1c0-2.2 1.8-4 4-4s4 1.8 4 4v62.1c0 2.2-1.8 4-4 4z"/><path d="m850.7 96.4c-2.2 0-4-1.8-4-4v-52.1c0-2.2 1.8-4 4-4s4 1.8 4 4v52.1c0 2.2-1.8 4-4 4z"/><path d="m844.9 650.1c-2.2 0-4-1.8-4-4v-52.1c0-2.2 1.8-4 4-4s4 1.8 4 4v52.1c0 2.2-1.8 4-4 4z"/><path d="m822 111.5c-2.2 0-4-1.8-4-4v-22.1c0-2.2 1.8-4 4-4s4 1.8 4 4v22.1c0 2.2-1.8 4-4 4z"/><path d="m850.7 241.4c-2.2 0-4-1.8-4-4v-22.1c0-2.2 1.8-4 4-4s4 1.8 4 4v22.1c0 2.2-1.8 4-4 4z"/><path d="m818.9 441.3c-2.2 0-4-1.8-4-4v-15.1c0-2.2 1.8-4 4-4s4 1.8 4 4v15.1c0 2.2-1.8 4-4 4z"/><path d="m818.9 597.2c-2.2 0-4-1.8-4-4v-99.1c0-2.2 1.8-4 4-4s4 1.8 4 4v99.1c0 2.2-1.8 4-4 4z"/><path d="m734.7 468.5c-2.2 0-4 1.8-4 4v52.1c0 2.2 1.8 4 4 4s4-1.8 4-4v-52.1c0-2.2-1.7-4-4-4z"/><path d="m734.7 332c-2.2 0-4 1.8-4 4v92.1c0 2.2 1.8 4 4 4s4-1.8 4-4v-92.1c0-2.2-1.7-4-4-4z"/><path d="m757.7 305.4c-2.2 0-4 1.8-4 4v62.1c0 2.2 1.8 4 4 4s4-1.8 4-4v-62.1c0-2.2-1.8-4-4-4z"/><path d="m763.4 589.9c-2.2 0-4 1.8-4 4v52.1c0 2.2 1.8 4 4 4s4-1.8 4-4v-52.1c0-2.2-1.8-4-4-4z"/><path d="m757.7 36.3c-2.2 0-4 1.8-4 4v52.1c0 2.2 1.8 4 4 4s4-1.8 4-4v-52.1c0-2.2-1.8-4-4-4z"/><path d="m734.7 574.9c-2.2 0-4 1.8-4 4v22.1c0 2.2 1.8 4 4 4s4-1.8 4-4v-22.1c0-2.2-1.7-4-4-4z"/><path d="m763.4 445c-2.2 0-4 1.8-4 4v22.1c0 2.2 1.8 4 4 4s4-1.8 4-4v-22.1c0-2.3-1.8-4-4-4z"/><path d="m731.6 245.1c-2.2 0-4 1.8-4 4v15.1c0 2.2 1.8 4 4 4s4-1.8 4-4v-15.1c0-2.2-1.8-4-4-4z"/><path d="m731.6 89.2c-2.2 0-4 1.8-4 4v99.1c0 2.2 1.8 4 4 4s4-1.8 4-4v-99.1c0-2.2-1.8-4-4-4z"/><path d="m843.6 864.4v-52.1c0-2.2 1.8-4 4-4s4 1.8 4 4v52.1c0 2.2-1.8 4-4 4s-4-1.8-4-4z"/><path d="m843.6 1000.9v-92.1c0-2.2 1.8-4 4-4s4 1.8 4 4v92.1c0 2.2-1.8 4-4 4s-4-1.8-4-4z"/><path d="m820.7 1027.5v-62.1c0-2.2 1.8-4 4-4s4 1.8 4 4v62.1c0 2.2-1.8 4-4 4s-4-1.8-4-4z"/><path d="m814.9 742.9v-52.1c0-2.2 1.8-4 4-4s4 1.8 4 4v52.1c0 2.2-1.8 4-4 4s-4-1.8-4-4z"/><path d="m820.7 1296.6v-52.1c0-2.2 1.8-4 4-4s4 1.8 4 4v52.1c0 2.2-1.8 4-4 4s-4-1.8-4-4z"/><path d="m843.6 758v-22.1c0-2.2 1.8-4 4-4s4 1.8 4 4v22.1c0 2.2-1.8 4-4 4s-4-1.8-4-4z"/><path d="m814.9 887.9v-22.1c0-2.2 1.8-4 4-4s4 1.8 4 4v22.1c0 2.2-1.8 4-4 4s-4-1.8-4-4z"/><path d="m846.7 1087.8v-15.1c0-2.2 1.8-4 4-4s4 1.8 4 4v15.1c0 2.2-1.8 4-4 4s-4-1.8-4-4z"/><path d="m657.3 864.4v-52.1c0-2.2 1.8-4 4-4s4 1.8 4 4v52.1c0 2.2-1.8 4-4 4s-4-1.8-4-4z"/><path d="m657.3 1000.9v-92.1c0-2.2 1.8-4 4-4s4 1.8 4 4v92.1c0 2.2-1.8 4-4 4s-4-1.8-4-4z"/><path d="m634.4 1027.5v-62.1c0-2.2 1.8-4 4-4s4 1.8 4 4v62.1c0 2.2-1.8 4-4 4s-4-1.8-4-4z"/><path d="m628.6 742.9v-52.1c0-2.2 1.8-4 4-4s4 1.8 4 4v52.1c0 2.2-1.8 4-4 4s-4-1.8-4-4z"/><path d="m634.4 1296.6v-52.1c0-2.2 1.8-4 4-4s4 1.8 4 4v52.1c0 2.2-1.8 4-4 4s-4-1.8-4-4z"/><path d="m657.3 758v-22.1c0-2.2 1.8-4 4-4s4 1.8 4 4v22.1c0 2.2-1.8 4-4 4s-4-1.8-4-4z"/><path d="m628.6 887.9v-22.1c0-2.2 1.8-4 4-4s4 1.8 4 4v22.1c0 2.2-1.8 4-4 4s-4-1.8-4-4z"/><path d="m660.4 1087.8v-15.1c0-2.2 1.8-4 4-4s4 1.8 4 4v15.1c0 2.2-1.8 4-4 4s-4-1.8-4-4z"/><path d="m660.4 1243.7v-99.1c0-2.2 1.8-4 4-4s4 1.8 4 4v99.1c0 2.2-1.8 4-4 4s-4-1.8-4-4z"/><path d="m744.6 1123v52.1c0 2.2 1.8 4 4 4s4-1.8 4-4v-52.1c0-2.2-1.8-4-4-4-2.3 0-4 1.8-4 4z"/><path d="m744.6 986.5v92.1c0 2.2 1.8 4 4 4s4-1.8 4-4v-92.1c0-2.2-1.8-4-4-4-2.3 0-4 1.8-4 4z"/><path d="m721.6 959.9v62.1c0 2.2 1.8 4 4 4s4-1.8 4-4v-62.1c0-2.2-1.8-4-4-4s-4 1.8-4 4z"/><path d="m715.9 1244.4v52.1c0 2.2 1.8 4 4 4s4-1.8 4-4v-52.1c0-2.2-1.8-4-4-4s-4 1.8-4 4z"/><path d="m721.6 690.8v52.1c0 2.2 1.8 4 4 4s4-1.8 4-4v-52.1c0-2.2-1.8-4-4-4s-4 1.8-4 4z"/><path d="m744.6 1229.4v22.1c0 2.2 1.8 4 4 4s4-1.8 4-4v-22.1c0-2.2-1.8-4-4-4-2.3 0-4 1.8-4 4z"/><path d="m715.9 1099.5v22.1c0 2.2 1.8 4 4 4s4-1.8 4-4v-22.1c0-2.2-1.8-4-4-4s-4 1.7-4 4z"/><path d="m747.7 899.6v15.1c0 2.2 1.8 4 4 4s4-1.8 4-4v-15.1c0-2.2-1.8-4-4-4s-4 1.8-4 4z"/><path d="m747.7 743.7v99.1c0 2.2 1.8 4 4 4s4-1.8 4-4v-99.1c0-2.2-1.8-4-4-4s-4 1.8-4 4z"/></g><path d="m616.1 421.9-150.9-43.3v45.5l150.9 43.3" fill="#4155ff"/><path d="m465.2 378.6v14l137.4 39.5c6.7 1.9 13.5-3.1 13.5-10.1z" fill="#064dff"/><path d="m616.1 421.9-150.9-43.3v45.5l150.9 43.3" fill="none" stroke="#fff" stroke-linejoin="round" stroke-miterlimit="10" stroke-width="3"/><path d="m565.2 425.4c-.4 0-.7-.1-1.1-.2l-26.2-7.5c-2.1-.6-3.4-2.8-2.7-4.9.6-2.1 2.8-3.3 4.9-2.7l26.2 7.5c2.1.6 3.4 2.8 2.7 4.9-.4 1.8-2 2.9-3.8 2.9z" fill="#7898ff"/><path d="m547.3 438.7c-.4 0-.7-.1-1.1-.2l-46.3-13.3c-2.1-.6-3.4-2.8-2.7-4.9.6-2.1 2.8-3.3 4.9-2.7l46.3 13.3c2.1.6 3.4 2.8 2.7 4.9-.4 1.8-2 2.9-3.8 2.9z" fill="#7898ff"/><path d="m872.5 836.9 112.7-32.3v32.3l-112.7 32.4" fill="#4155ff"/><path d="m872.5 836.9c0 5 4.8 8.6 9.6 7.2l103.1-29.6v-10z" fill="#064dff"/><path d="m956.9 835.1c-1.7 0-3.3-1.1-3.8-2.9-.6-2.1.6-4.3 2.7-4.9l16.9-4.8c2.1-.6 4.3.6 4.9 2.7s-.6 4.3-2.7 4.9l-16.9 4.8c-.3.2-.7.2-1.1.2z" fill="#7898ff"/><path d="m919.2 847.3c-1.7 0-3.3-1.1-3.8-2.9-.6-2.1.6-4.3 2.7-4.9l15.9-4.6c2.1-.6 4.3.6 4.9 2.7s-.6 4.3-2.7 4.9l-15.9 4.6c-.4.1-.8.2-1.1.2z" fill="#7898ff"/><path d="m872.5 836.9 112.7-32.3v32.3l-112.7 32.4" fill="none" stroke="#fff" stroke-linejoin="round" stroke-miterlimit="10" stroke-width="3"/><path d="m1127.1 774.1c8.6 1.7 15.7 6 21.4 12.8s8.5 14.6 8.5 23.5c0 6.8-1.7 13-5 18.7s-7.9 10.2-13.6 13.5c-5.8 3.3-12.1 4.9-18.9 4.9h-107.9c-7.6 0-14.7-1.9-21.1-5.7s-11.6-8.9-15.4-15.3-5.7-13.4-5.7-20.9c0-9.1 2.6-17.2 7.9-24.4s12-12.2 20.2-15.1v-2.3c0-8.3 2.1-16.1 6.3-23.3s9.9-12.8 17.1-17 15.1-6.2 23.6-6.2 16.4 2.1 23.6 6.4 12.9 9.9 17 16.9c4.7-3.1 9.9-4.7 15.5-4.7 7.8 0 14.5 2.7 19.9 8.1 5.5 5.4 8.2 12 8.2 19.8.2 3.6-.4 7-1.6 10.3z" fill="#fff"/><g enable-background="new"><path d="m1022.9 820.8v-7.2h-15.1v-9.9l18.6-23.5h7.6v23.5h5.2v9.9h-5.2v7.2zm-4.1-17.1h5.4v-7z"/><path d="m1074.8 796.4c0 2.6-.4 4.9-1.2 7.1s-1.9 4-3.3 5.6-3 2.8-4.9 3.7-4 1.3-6.2 1.3-4.3-.4-6.2-1.3-3.5-2.1-4.9-3.7-2.5-3.4-3.3-5.6-1.2-4.5-1.2-7.1.4-4.9 1.2-7.1 1.9-4 3.3-5.6 3-2.8 4.9-3.7 4-1.3 6.2-1.3 4.3.4 6.2 1.3 3.5 2.1 4.9 3.7 2.5 3.4 3.3 5.6 1.2 4.6 1.2 7.1zm-11.2 0c0-2.2-.4-4.1-1.2-5.5s-1.8-2.1-3.1-2.1-2.4.7-3.2 2.1-1.2 3.2-1.2 5.5c0 2.2.4 4.1 1.2 5.4.8 1.4 1.9 2.1 3.2 2.1 1.2 0 2.3-.7 3.1-2.1.8-1.3 1.2-3.1 1.2-5.4z"/><path d="m1093.2 820.8v-7.2h-15.1v-9.9l18.6-23.5h7.6v23.5h5.2v9.9h-5.2v7.2zm-4.1-17.1h5.4v-7z"/></g><path d="m442 349.1c.8-11.5-12.7-13.4-12.7-13.4s-35.1-7.8-51-19.5c-1.8-1.3-4.4-.1-4.3 2 .2 3.3 1.5 7.8 6.4 11.9 2.7 2.3 7.7 4.9 13.5 7.5-5.3-1.9-10.3-4.2-14.4-6.7-1.9-1.2-4.4.2-4.1 2.3.4 3.3 2.1 7.7 7.2 11.5 3.3 2.4 9.3 5 15.9 7.4-6.3-1.6-12.7-3.8-17.9-6.5-2-1.1-4.4.5-3.9 2.6.6 3.3 2.6 7.6 8.1 11.1 3.6 2.3 9.8 4.5 16.4 6.4-6.6-1.1-13.4-3.5-19.4-6.2-2.1-.9-4.3.8-3.7 2.8.9 3.3 3.2 7.5 8.9 10.7 10.8 6 40 9.3 40 9.3 5.6 1.3 10.2 2.8 13.9 4.1 2.9 1.1 5.6-1.5 4.5-4.2-4.6-10.7-3.9-24.4-3.4-33.1z" fill="#2e97ff"/><ellipse cx="451.1" cy="397" fill="#4155ff" rx="50.8" ry="50.8"/><ellipse cx="451.1" cy="397" fill="#aaa" rx="36" ry="36"/><ellipse cx="451.1" cy="397" fill="#fff" rx="36" ry="36"/><ellipse cx="451.5" cy="397" fill="#4155ff" rx="31.2" ry="31.2" stroke="#fff" stroke-miterlimit="10"/><path d="m462.8 402.4c-.4 3.2-1.8 5.6-4.2 7.2s-5.7 2.3-9.9 2.1l-1.6 5-3.6-.4 1.8-5.1c-3.6-.6-6.6-1.8-8.9-3.3l.8-6.9c3.2 2.3 6.6 3.7 10.1 4.3l2.8-8.1c-2.7-1.4-4.6-2.9-5.8-4.7-1.2-1.7-1.6-3.6-1.4-5.8.4-3 1.7-5.3 4.2-6.8 2.4-1.6 5.6-2.3 9.4-2.1l1.4-3.8 3.6.4-1.3 3.8c2.8.7 5.3 1.8 7.4 3.2l-3.5 5.7c-2.1-1.4-4.2-2.3-6-2.7l-2.6 7.7c2.2 1.2 3.7 2.2 4.7 3.2s1.7 2 2.2 3.2c.5 1.1.6 2.5.4 3.9zm-8.3-18.3c-1.1 0-2 .2-2.6.8-.7.5-1.1 1.3-1.2 2.3-.2 1.4.4 2.4 1.7 3.1zm-3.6 21.5c1.1 0 2-.3 2.8-.8.7-.5 1.2-1.3 1.3-2.4.1-.8 0-1.5-.4-2-.4-.6-.8-1-1.4-1.3z" fill="#fff"/><path d="m460.8 379.1c2.5.6 4.7 1.6 6.6 2.8l.2-.4c-1.9-1.3-4.1-2.3-6.6-3z" fill="#4121ff"/><path d="m453 391.2 2.1-6.2c-.3 0-.6 0-.8.1l-1.8 5.3c-.4-.2-.7-.5-1-.8.2.6.7 1.1 1.5 1.6z" fill="#4121ff"/><path d="m455.5 403.2c.1-.8 0-1.5-.4-2-.1-.1-.2-.2-.3-.3.2.4.2.9.1 1.5-.1 1.1-.6 1.9-1.3 2.4-.5.4-1.2.6-1.9.8l-.3.9c1.1 0 2-.3 2.8-.8.8-.6 1.2-1.5 1.3-2.5z" fill="#4121ff"/><path d="m462 397.5c-.4-.8-1-1.5-1.7-2.2-.9-.9-2.3-1.8-4-2.8l-.2.4c2.2 1.2 3.7 2.2 4.7 3.2.5.4.8.9 1.2 1.4z" fill="#4121ff"/><path d="m444.5 392.7c-.9-1.6-1.2-3.3-1-5.1.4-3 1.7-5.3 4.2-6.8 2.4-1.6 5.6-2.3 9.4-2.1l1.4-3.8 2.8.3.3-.8-3.6-.4-1.4 3.8c-3.9-.2-7 .5-9.4 2.1s-3.8 3.9-4.2 6.8c-.3 2.1.2 4.1 1.4 5.8 0 .1.1.1.1.2z" fill="#4121ff"/><path d="m445.8 412.1c-.3 0-.5-.1-.8-.2l-1.5 4.4.8.1z" fill="#4121ff"/><path d="m437.7 401.9c3.2 2.3 6.6 3.7 10.1 4.3l2.8-8.1c-.3-.1-.5-.3-.7-.4l-2.7 7.7c-3.5-.6-6.9-2-10.1-4.3l-.8 6.9c.2.1.4.2.6.3z" fill="#4121ff"/><path d="m400.7 390.9c0 .2 0 .4-.1.6 9.2 0 17-.6 17-.6 5.7.3 10.5.8 14.4 1.5 3 .5 5.2-2.5 3.6-4.9-6.5-9.7-8.4-23.2-9.4-32-.1-.9-.3-1.8-.6-2.6-13.3 7.8-22.9 21.5-24.9 38z" fill="#064dff"/><path d="m433 354.7c.7-11.6-12.8-13.5-12.8-13.5s-35.4-7.9-51.5-19.7c-1.8-1.3-4.4-.1-4.3 2.1.2 3.4 1.5 7.9 6.4 12 2.7 2.3 7.8 5 13.6 7.6-5.3-1.9-10.4-4.2-14.5-6.8-1.9-1.2-4.4.2-4.1 2.3.4 3.3 2.1 7.7 7.3 11.6 3.3 2.4 9.4 5.1 16 7.5-6.4-1.6-12.8-3.8-18.1-6.6-2-1.1-4.4.5-4 2.6.7 3.3 2.6 7.6 8.1 11.2 3.6 2.3 9.9 4.6 16.6 6.5-6.7-1.1-13.6-3.6-19.6-6.2-2-1-4.2.7-3.6 2.8.9 3.3 3.2 7.6 9 10.8 10.9 6.1 40.3 9.4 40.3 9.4 5.6 1.3 10.3 2.8 14 4.1 2.9 1.1 5.7-1.5 4.5-4.2-4.5-10.9-3.9-24.7-3.3-33.5z" fill="#fff"/><path d="m615.8 468.7h231.6v325.5h-231.6z" fill="#fff" transform="matrix(.9816 -.1908 .1908 .9816 -107.04 151.1901)"/><path d="m686.6 775.9h190.4v11.6h-190.4z" transform="matrix(.9816 -.1908 .1908 .9816 -134.7854 163.5285)"/><path d="m657.6 706h94.6v4.5h-94.6z" fill="#b9bdc0" opacity=".4" transform="matrix(.9816 -.1908 .1908 .9816 -122.1839 147.5066)"/><path d="m660.2 715.8h170.5v4.5h-170.5z" fill="#b9bdc0" opacity=".4" transform="matrix(.9816 -.1908 .1908 .9816 -123.3088 155.4236)"/><path d="m663.5 732.8h171.1v4.5h-171.1z" fill="#b9bdc0" opacity=".4" transform="matrix(.9816 -.1908 .1908 .9816 -126.4862 156.4228)"/><path d="m667.6 757.7h88.1v4.5h-88.1z" fill="#b9bdc0" opacity=".4" transform="matrix(.9816 -.1908 .1908 .9816 -131.9243 149.7443)"/><path d="m585.9 471.6h231.6v11.6h-231.6z" transform="matrix(.9816 -.1908 .1908 .9816 -78.1965 142.655)"/><path d="m846.7 621-227.4 44-19.3-99.7 227.4-44z" fill="#666"/><path d="m628.5 464.4h231.6v325.5h-231.6z" fill="#fff"/><path d="m669.7 778.3h190.4v11.6h-190.4z"/><path d="m656.2 695.1h94.6v4.5h-94.6z" fill="#666"/><path d="m656.2 712.5h170.5v4.5h-170.5z" fill="#666"/><path d="m656.2 729.8h171.1v4.5h-171.1z" fill="#666"/><path d="m656.2 747.2h88.1v4.5h-88.1z" fill="#666"/><path d="m628.5 464.4h231.6v11.6h-231.6z"/><path d="m860.2 669.1-231.7-.3v-101.6l231.7.3z" fill="#666"/><path d="m679.6 589.9-27.8 27.8 28.7 28.7" fill="none" stroke="#fff" stroke-linecap="round" stroke-miterlimit="10" stroke-width="6.1266"/><path d="m807.9 646.4 27.8-27.8-28.7-28.7" fill="none" stroke="#fff" stroke-linecap="round" stroke-miterlimit="10" stroke-width="6.1266"/><path d="m690.5 612h26.7v2.9h-26.7z" fill="#fff"/><path d="m770.3 612h26.7v2.9h-26.7z" fill="#fff"/><path d="m725.9 612h40.3v2.9h-40.3z" fill="#fff"/><path d="m690.5 628.7h26.7v2.9h-26.7z" fill="#fff"/><path d="m725.9 628.7h40.3v2.9h-40.3z" fill="#fff"/><path d="m690.5 620.7h26.7v2.9h-26.7z" fill="#fff"/><path d="m770.3 620.7h26.7v2.9h-26.7z" fill="#fff"/><path d="m710.9 620.7h55.3v2.9h-55.3z" fill="#fff"/><g enable-background="new"><path d="m681.4 517.5v-12.6l-4 8.8h-3.5l-4-8.8v12.6h-6.6v-23.9h7.2l5.2 11.2 5.2-11.2h7.2v23.9z"/><path d="m696.2 517.5v-23.9h6.6v23.9z"/><path d="m725.6 501.4c-.7-.4-1.4-.8-2.1-1.1-.6-.3-1.3-.5-2.1-.8s-1.5-.4-2.2-.4c-.6 0-1.1.1-1.4.3-.4.2-.5.5-.5.9 0 .3.1.6.3.8s.5.4.9.6.9.3 1.4.5c.6.2 1.2.3 1.9.6 1.1.3 2.1.7 3 1.1s1.7.9 2.3 1.4 1.1 1.2 1.5 2c.3.8.5 1.7.5 2.9 0 1.4-.3 2.6-.8 3.6s-1.2 1.8-2.1 2.3c-.9.6-1.9 1-3 1.3s-2.2.4-3.3.4c-.9 0-1.8-.1-2.7-.2s-1.9-.3-2.8-.6c-.9-.2-1.8-.5-2.7-.9-.8-.3-1.6-.7-2.4-1.1l2.9-5.8c.8.5 1.6.9 2.5 1.3.7.3 1.5.6 2.5.9.9.3 1.9.4 2.8.4.7 0 1.2-.1 1.5-.3s.4-.4.4-.8c0-.3-.1-.6-.4-.9s-.7-.4-1.2-.6-1.1-.4-1.7-.5-1.3-.4-2.1-.6c-1.1-.4-2-.7-2.8-1.2-.8-.4-1.4-.9-1.9-1.4s-.9-1.1-1.1-1.8-.4-1.4-.4-2.3c0-1.3.2-2.5.7-3.5s1.1-1.8 2-2.5 1.8-1.2 2.9-1.5 2.2-.5 3.4-.5c.9 0 1.7.1 2.6.3s1.6.4 2.4.6 1.5.5 2.2.8 1.3.6 1.8.9z"/><path d="m750.6 501.4c-.7-.4-1.4-.8-2.1-1.1-.6-.3-1.3-.5-2.1-.8s-1.5-.4-2.2-.4c-.6 0-1.1.1-1.4.3-.4.2-.5.5-.5.9 0 .3.1.6.3.8s.5.4.9.6.9.3 1.4.5c.6.2 1.2.3 1.9.6 1.1.3 2.1.7 3 1.1s1.7.9 2.3 1.4 1.1 1.2 1.5 2c.3.8.5 1.7.5 2.9 0 1.4-.3 2.6-.8 3.6s-1.2 1.8-2.1 2.3c-.9.6-1.9 1-3 1.3s-2.2.4-3.3.4c-.9 0-1.8-.1-2.7-.2s-1.9-.3-2.8-.6c-.9-.2-1.8-.5-2.7-.9-.8-.3-1.6-.7-2.4-1.1l2.9-5.8c.8.5 1.6.9 2.5 1.3.7.3 1.5.6 2.5.9.9.3 1.9.4 2.8.4.7 0 1.2-.1 1.5-.3s.4-.4.4-.8c0-.3-.1-.6-.4-.9s-.7-.4-1.2-.6-1.1-.4-1.7-.5-1.3-.4-2.1-.6c-1.1-.4-2-.7-2.8-1.2-.8-.4-1.4-.9-1.9-1.4s-.9-1.1-1.1-1.8-.4-1.4-.4-2.3c0-1.3.2-2.5.7-3.5s1.1-1.8 2-2.5 1.8-1.2 2.9-1.5 2.2-.5 3.4-.5c.9 0 1.7.1 2.6.3s1.6.4 2.4.6 1.5.5 2.2.8 1.3.6 1.8.9z"/><path d="m760.9 517.5v-23.9h6.6v23.9z"/><path d="m782.4 505.8v11.7h-6.6v-23.9h5.2l9.7 12.1v-12.1h6.6v23.9h-5.3z"/><path d="m821.7 515.5c-1.7 1.4-3.7 2.2-5.9 2.2-1.6 0-3.1-.3-4.5-.8s-2.7-1.4-3.7-2.4c-1.1-1.1-1.9-2.3-2.5-3.9-.6-1.5-1-3.3-1-5.2 0-1.7.3-3.2 1-4.7.6-1.4 1.5-2.7 2.6-3.8s2.4-1.9 3.9-2.5 3.1-.9 4.9-.9c1.1 0 2.1.1 3.1.4 1 .2 1.9.6 2.8 1 .8.5 1.6 1 2.3 1.6s1.2 1.4 1.7 2.2l-4.9 3.7c-.5-.9-1.2-1.7-2.1-2.3-1-.6-2-.9-3-.9-.8 0-1.5.2-2.2.5s-1.2.8-1.7 1.3c-.5.6-.8 1.2-1.1 2s-.4 1.6-.4 2.5.1 1.8.4 2.6.7 1.4 1.1 2c.5.5 1.1 1 1.8 1.3s1.4.5 2.3.5c1.9 0 3.6-.8 5.1-2.4h-4.2v-4.7h9.9v12.7h-5.5v-2z"/></g><g enable-background="new"><path d="m692.8 551.1v-23.9h6.6v18.2h10.9v5.7z"/><path d="m727.3 551.3c-1.8 0-3.5-.3-5-1s-2.8-1.6-3.8-2.7c-1.1-1.1-1.9-2.4-2.5-3.9s-.9-3-.9-4.5c0-1.6.3-3.1.9-4.5.6-1.5 1.5-2.7 2.6-3.8s2.4-2 3.9-2.7 3.2-1 4.9-1c1.8 0 3.5.3 5 1s2.8 1.6 3.8 2.8c1.1 1.1 1.9 2.4 2.5 3.9s.9 2.9.9 4.5-.3 3.1-.9 4.5-1.5 2.7-2.5 3.8c-1.1 1.1-2.4 2-3.9 2.7-1.6.6-3.2.9-5 .9zm-5.5-12.1c0 .8.1 1.6.3 2.3.2.8.6 1.4 1 2s1 1.1 1.7 1.4c.7.4 1.5.5 2.5.5s1.8-.2 2.5-.6 1.3-.9 1.7-1.4c.4-.6.8-1.3 1-2 .2-.8.3-1.5.3-2.3s-.1-1.6-.3-2.3-.6-1.4-1-2c-.5-.6-1-1-1.7-1.4-.7-.3-1.5-.5-2.4-.5-1 0-1.8.2-2.5.5-.7.4-1.3.8-1.7 1.4-.5.6-.8 1.3-1 2-.3.8-.4 1.6-.4 2.4z"/><path d="m751.7 527.2h6l8.4 23.9h-6.7l-1.5-4.7h-6.4l-1.4 4.7h-6.8zm5.1 14.8-2.1-7.4-2.2 7.4z"/><path d="m778.7 539.4v11.7h-6.6v-23.9h5.2l9.7 12.1v-12.1h6.6v23.9h-5.3z"/></g><g opacity="0"><path d="m736.6 481.8s5.8 9.4 9.8-2.1" fill="none" stroke="#231f20" stroke-miterlimit="10"/><ellipse cx="741.4" cy="479.5" fill="#231f20" rx="3.9" ry="3.1" transform="matrix(.1908 -.9816 .9816 .1908 129.2523 1115.7991)"/><path d="m742.6 477c.4.5-16.8-18.3-28.9-16.6v1.5s2.5 3.2 1.8 8.4c0 0 1.4-5.7 24.8 11.7.1-.1 4.7-.9 2.3-5z" fill="#d9e2e3" stroke="#231f20" stroke-miterlimit="10"/><path d="m745.7 475.3s-3-2.6-5.7-.6" fill="none" stroke="#231f20" stroke-miterlimit="10"/><path d="m708.8 457.9h4.6s3 3.6 3.3 6.5c0 0 .8 5.8-1.2 8.2l-3.4 1.3s2.2-4.9.7-9.1c.1 0-.9-4.2-4-6.9z" fill="#dee4e5"/><path d="m713 464.7c1.6 5-.5 9.1-3.2 10s-4.6-1.8-6.2-6.9-.5-9.2 2.2-10 5.6 1.9 7.2 6.9z" fill="#dee4e5"/><g fill="none" stroke="#231f20" stroke-miterlimit="10"><path d="m709 474.9s1.1-.3 2.3-.8c1.6-.6 3.4-1.3 3.9-1.8 0 0 2.2-2.2 1-8.6s-3.4-5.9-3.4-5.9l-5.4-.3h-.9s-2.5.1-3.1 2.9-.7 4 0 7.6c0 0 1.3 6.2 5.6 6.9z"/><path d="m707.4 457.6c4.6 2.1 5.6 7.1 5.6 7.1s1.3 5.8-1.6 9.4"/><path d="m714.1 473s1.2-5.5-.3-9.1" stroke-width=".5"/><path d="m715.1 472s1.2-4.5-.3-8.1" stroke-width=".5"/><path d="m710.5 457.6s2.4 1.2 3.3 5" stroke-width=".5"/></g></g></svg>