<svg viewBox="0 0 295.8 262.74" xmlns="http://www.w3.org/2000/svg"><path d="m293.28 72.91a8.9 8.9 0 0 0 -8.39-5.91 9 9 0 0 0 -8.06 5.09 152.25 152.25 0 0 1 -7.83 14.48 129.32 129.32 0 0 0 -121.1-84.3c-71.18 0-129.1 57.92-129.1 129.1a128.6 128.6 0 0 0 1.93 22.26 165.52 165.52 0 0 0 -17.87 29.37 8.91 8.91 0 0 0 16.14 7.66 152.25 152.25 0 0 1 7.85-14.49 129.1 129.1 0 0 0 248.25-67.06 164.93 164.93 0 0 0 17.87-29.39 8.85 8.85 0 0 0 .31-6.81zm-34.11 58.46a111.27 111.27 0 0 1 -219.27 26.78c20.47-24.05 48.82-41.15 84.71-51.08a247.71 247.71 0 0 1 55.52-8.48l-26.65 26.66 12.61 12.6 48.29-48.3-55-55-12.58 12.62 33.55 33.54a264.81 264.81 0 0 0 -60 9c-24.31 6.65-45.94 16.66-64.3 29.74a166.76 166.76 0 0 0 -19.34 16.12c-.06-1.41-.09-2.82-.09-4.24a111.28 111.28 0 0 1 219.28-26.78c-20.47 24-48.83 41.18-84.72 51.08a247.62 247.62 0 0 1 -55.52 8.48l26.65-26.66-12.61-12.6-48.29 48.3 55 55 12.59-12.58-33.54-33.57a265 265 0 0 0 60-9c24.31-6.66 45.94-16.66 64.3-29.74a165.92 165.92 0 0 0 19.34-16.12c.04 1.4.07 2.86.07 4.23z" fill="#4155ff"/></svg>