<svg enable-background="new 0 0 136.756 65.037" height="65.037" viewBox="0 0 136.756 65.037" width="136.756" xmlns="http://www.w3.org/2000/svg"><g fill="#fff"><path d="m10.438 22.722h.115c2.007-3.613 5.449-5.219 9.52-5.219h2.008v10.036c-1.434-.803-2.81-.975-4.417-.975-5.792 0-7.226 3.842-7.226 8.889v11.873h-10.438v-29.422h10.438z"/><path d="m27.49 17.904h10.438v29.422h-10.438z"/><path d="m56.21 21.23h.115c1.893-2.925 5.448-4.302 8.89-4.302 8.775 0 14.854 7.341 14.854 15.771 0 8.488-6.022 15.602-14.74 15.602-3.383 0-6.882-1.205-9.119-3.786v16.116l-10.438 4.405v-47.132h10.438zm-.344 11.414c0 3.728 2.466 6.596 6.711 6.596 4.244 0 6.709-2.868 6.709-6.596 0-3.613-2.465-6.653-6.709-6.653-4.245-.001-6.711 3.039-6.711 6.653"/><path d="m85.621 17.904h10.438v29.422h-10.438z"/><path d="m136.756 32.644c0 9.979-8.258 15.658-17.721 15.658-9.406 0-17.722-5.622-17.722-15.658s8.258-15.715 17.722-15.715c9.463 0 17.721 5.678 17.721 15.715m-24.432 0c0 3.728 2.466 6.596 6.711 6.596 4.244 0 6.71-2.868 6.71-6.596 0-3.613-2.466-6.653-6.71-6.653-4.245-.001-6.711 3.039-6.711 6.653"/></g><path d="m37.904 9.724-10.197 4.111v-9.725l10.219-4.11z" fill="#7ac4ee"/><path d="m95.928 9.724-10.198 4.111v-9.725l10.22-4.11z" fill="#7ac4ee"/></svg>